<svg height="480pt" viewBox="0 0 480 480.0397" width="480pt"
  xmlns="http://www.w3.org/2000/svg">
  <path d="m408.019531 128.039062h-64c-25.648437-.023437-48.828125 15.28125-58.878906 38.878907 7.097656 9.582031 10.914063 21.199219 10.878906 33.121093 0 30.929688-25.070312 56-56 56-30.925781 0-56-25.070312-56-56-.035156-11.921874 3.78125-23.539062 10.878907-33.121093-10.046876-23.597657-33.230469-38.902344-58.878907-38.878907h-64c-35.347656 0-64 28.65625-64 64v136c0 4.417969 3.582031 8 8 8h128v128c0 4.417969 3.582031 8 8 8h176c4.417969 0 8-3.582031 8-8v-128h128c4.417969 0 8-3.582031 8-8v-136c0-35.34375-28.652343-64-64-64zm0 0" fill="#78b9eb"/>
  <g fill="#1a6fb0">
    <path d="m176.019531 84.039062c.996094 0 1.984375-.183593 2.914063-.542968 7.0625-2.761719 14.304687-5.03125 21.679687-6.800782h.207031c7.320313-1.769531 14.75-3.054687 22.238282-3.839843 2.121094-.140625 4.074218-1.191407 5.359375-2.878907 2.101562-2.480468 2.472656-5.988281.9375-8.851562-1.539063-2.863281-4.667969-4.492188-7.894531-4.109375-8.21875.792969-16.371094 2.15625-24.402344 4.078125-8.132813 1.949219-16.121094 4.449219-23.910156 7.488281-3.582032 1.394531-5.667969 5.140625-4.964844 8.917969.699218 3.78125 3.992187 6.527344 7.835937 6.539062zm0 0"/>
    <path d="m279.269531 76.648438c7.425781 1.777343 14.726563 4.0625 21.839844 6.847656.925781.359375 1.914063.542968 2.910156.542968 3.851563.007813 7.160157-2.734374 7.875-6.519531.710938-3.785156-1.371093-7.539062-4.960937-8.9375-7.800782-3.042969-15.800782-5.546875-23.945313-7.496093-2.796875-.707032-5.757812.144531-7.75 2.230468-1.992187 2.082032-2.710937 5.078125-1.875 7.839844.835938 2.761719 3.089844 4.859375 5.90625 5.492188zm0 0"/>
    <path d="m408.019531 120.039062h-1.085937c25.566406-14.101562 38.347656-43.722656 31.0625-72-7.28125-28.277343-32.777344-48.039062-61.976563-48.039062s-54.695312 19.761719-61.976562 48.039062c-7.28125 28.277344 5.496093 57.898438 31.066406 72h-1.089844c-24.515625-.003906-47.339843 12.496094-60.542969 33.152344-24.457031-22.871094-62.457031-22.871094-86.914062 0-13.203125-20.65625-36.027344-33.15625-60.542969-33.152344h-1.085937c25.566406-14.101562 38.347656-43.722656 31.0625-72-7.28125-28.277343-32.777344-48.039062-61.976563-48.039062s-54.695312 19.761719-61.976562 48.039062c-7.28125 28.277344 5.496093 57.898438 31.066406 72h-1.089844c-39.742187.050782-71.9531248 32.257813-71.9999998 72v136c0 8.835938 7.1640628 16 15.9999998 16h86.664063c-1.378906.144532-2.6875.671876-3.785156 1.519532-1.621094 1.378906-2.652344 3.324218-2.878907 5.441406-.183593 2.113281.476563 4.214844 1.839844 5.839844 7.59375 9.273437 16.089844 17.765625 25.359375 25.359375 1.410156 1.1875 3.195312 1.839843 5.042969 1.839843 3.726562.117188 7-2.460937 7.757812-6.113281v86.113281c0 8.835938 7.164063 16 16 16h176c8.835938 0 16-7.164062 16-16v-120h30.617188c-1.871094.265626-3.578125 1.203126-4.800781 2.640626-6.894532 8.375-14.585938 16.066406-22.960938 22.960937-1.644531 1.347656-2.679688 3.300781-2.875 5.421875s.464844 4.230469 1.835938 5.855469c1.515624 1.835937 3.777343 2.894531 6.160156 2.882812 1.867187.003907 3.679687-.648437 5.121094-1.839843 9.128906-7.558594 17.511718-15.96875 25.039062-25.121094 2.777344-3.433594 2.277344-8.460938-1.121094-11.28125-1.09375-.847656-2.398437-1.371094-3.773437-1.519532h86.757812c8.835938 0 16-7.164062 16-16v-136c-.046875-39.742187-32.253906-71.949218-72-72zm-80-56c0-26.507812 21.492188-48 48-48 26.511719 0 48 21.492188 48 48 0 26.511719-21.488281 48-48 48-26.5-.027343-47.972656-21.5-48-48zm-272 0c0-26.507812 21.492188-48 48-48 26.511719 0 48 21.492188 48 48 0 26.511719-21.488281 48-48 48-26.5-.027343-47.972656-21.5-48-48zm184 88c26.511719 0 48 21.492188 48 48 0 26.511719-21.488281 48-48 48-26.507812 0-48-21.488281-48-48 .027344-26.5 21.5-47.972656 48-48zm-224 40c.035157-30.914062 25.085938-55.964843 56-56h64c20.925781.035157 40.074219 11.769532 49.601563 30.402344-9.257813 14.875-11.984375 32.90625-7.539063 49.851563 4.441407 16.949219 15.664063 31.324219 31.027344 39.746093h-1.089844c-39.742187.050782-71.953125 32.257813-72 72h-120zm117.359375 177.839844c-8.453125-6.976562-16.222656-14.742187-23.199218-23.199218-1.246094-1.429688-2.960938-2.367188-4.839844-2.640626h30.679687v30.402344c-.324219-1.78125-1.257812-3.394531-2.640625-4.5625zm18.640625 94.160156v-136c.035157-30.914062 25.085938-55.964843 56-56h64c30.914063.035157 55.964844 25.085938 56 56v136zm312-136h-120c-.046875-39.742187-32.253906-71.949218-72-72h-1.085937c15.363281-8.421874 26.582031-22.796874 31.023437-39.746093 4.445313-16.945313 1.71875-34.976563-7.539062-49.851563 9.527343-18.632812 28.675781-30.367187 49.601562-30.402344h64c30.914063.035157 55.964844 25.085938 56 56zm0 0"/>
    <path d="m256.019531 176.039062h16v16h-16zm0 0"/>
    <path d="m208.019531 176.039062h16v16h-16zm0 0"/>
    <path d="m304.019531 440.039062h16v16h-16zm0 0"/>
    <path d="m280.019531 440.039062h16v16h-16zm0 0"/>
    <path d="m304.019531 416.039062h16v16h-16zm0 0"/>
    <path d="m392.019531 40.039062h16v16h-16zm0 0"/>
    <path d="m344.019531 40.039062h16v16h-16zm0 0"/>
    <path d="m72.019531 40.039062h16v16h-16zm0 0"/>
    <path d="m120.019531 40.039062h16v16h-16zm0 0"/>
    <path d="m440.019531 304.039062h16v16h-16zm0 0"/>
    <path d="m416.019531 304.039062h16v16h-16zm0 0"/>
    <path d="m440.019531 280.039062h16v16h-16zm0 0"/>
    <path d="m24.019531 304.039062h16v16h-16zm0 0"/>
    <path d="m48.019531 304.039062h16v16h-16zm0 0"/>
    <path d="m24.019531 280.039062h16v16h-16zm0 0"/>
    <path d="m264.019531 64.039062c0 4.417969-3.582031 8-8 8s-8-3.582031-8-8c0-4.417968 3.582031-8 8-8s8 3.582032 8 8zm0 0"/>
  </g>
</svg>
