<?xml version="1.0" encoding="iso-8859-1"?>
<!-- Generator: Adobe Illustrator 18.0.0, SVG Export Plug-In . SVG Version: 6.00 Build 0)  -->
<!DOCTYPE svg PUBLIC "-//W3C//DTD SVG 1.1//EN" "http://www.w3.org/Graphics/SVG/1.1/DTD/svg11.dtd">
<svg version="1.1" id="Capa_1" xmlns="http://www.w3.org/2000/svg" xmlns:xlink="http://www.w3.org/1999/xlink" x="0px" y="0px"
	 viewBox="0 0 54.981 54.981" style="enable-background:new 0 0 54.981 54.981;" xml:space="preserve">
<g>
	<g>
		<path style="fill:#545E73;" d="M49.311,8L49.311,8C48.58,3.538,38.137,0,25.356,0S2.132,3.538,1.401,8l0,0H1.356v0.5V20v0.5V21v11
			v0.5V33v12h0.045c0.731,4.461,11.175,8,23.955,8s23.224-3.539,23.955-8h0.045V33v-0.5V32V21v-0.5V20V8.5V8H49.311z"/>
		<g>
			<path style="fill:#38454F;" d="M25.356,41c-13.255,0-24-3.806-24-8.5V45h0.045c0.731,4.461,11.175,8,23.955,8
				s23.224-3.539,23.955-8h0.045V32.5C49.356,37.194,38.611,41,25.356,41z"/>
			<path style="fill:#38454F;" d="M1.356,32v0.5c0-0.168,0.018-0.334,0.045-0.5H1.356z"/>
			<path style="fill:#38454F;" d="M49.311,32c0.027,0.166,0.045,0.332,0.045,0.5V32H49.311z"/>
		</g>
		<g>
			<path style="fill:#556080;" d="M25.356,29c-13.255,0-24-3.806-24-8.5V33h0.045c0.731,4.461,11.175,8,23.955,8
				s23.224-3.539,23.955-8h0.045V20.5C49.356,25.194,38.611,29,25.356,29z"/>
			<path style="fill:#556080;" d="M1.356,20v0.5c0-0.168,0.018-0.334,0.045-0.5H1.356z"/>
			<path style="fill:#556080;" d="M49.311,20c0.027,0.166,0.045,0.332,0.045,0.5V20H49.311z"/>
		</g>
		<ellipse style="fill:#91BAE1;" cx="25.356" cy="8.5" rx="24" ry="8.5"/>
		<g>
			<path style="fill:#8697CB;" d="M25.356,17c-13.255,0-24-3.806-24-8.5V21h0.045c0.731,4.461,11.175,8,23.955,8
				s23.224-3.539,23.955-8h0.045V8.5C49.356,13.194,38.611,17,25.356,17z"/>
			<path style="fill:#8697CB;" d="M1.356,8v0.5c0-0.168,0.018-0.334,0.045-0.5H1.356z"/>
			<path style="fill:#8697CB;" d="M49.311,8c0.027,0.166,0.045,0.332,0.045,0.5V8H49.311z"/>
		</g>
	</g>
	<g>
		<polygon style="fill:#EDDCC7;" points="32.192,45.489 32.184,45.496 30.196,52.786 34.843,48.139 		"/>
		<path style="fill:#D75A4A;" d="M51.442,31.54l-1.247-1.247c-0.775-0.775-2.032-0.775-2.807,0l-3.582,3.582l2.651,2.651
			L51.442,31.54z"/>

			<rect x="37.45" y="32.795" transform="matrix(0.7071 0.7071 -0.7071 0.7071 40.5143 -15.7956)" style="fill:#F29C21;" width="3.749" height="16.424"/>
		<polygon style="fill:#D6C4B1;" points="37.841,51.153 37.849,51.145 34.843,48.139 30.196,52.786 30.063,53.274 		"/>
		<path style="fill:#A34740;" d="M49.462,39.532l3.582-3.582c0.775-0.775,0.775-2.032,0-2.807l-1.602-1.602l-4.985,4.985
			L49.462,39.532z"/>

			<rect x="40.027" y="35.623" transform="matrix(-0.7071 -0.7071 0.7071 -0.7071 40.962 104.6381)" style="fill:#E18C25;" width="4.251" height="16.424"/>
		<path style="fill:#5E5E5E;" d="M29.356,54.981c-0.256,0-0.512-0.098-0.707-0.293c-0.391-0.391-0.391-1.023,0-1.414l2.207-2.207
			c0.391-0.391,1.023-0.391,1.414,0s0.391,1.023,0,1.414l-2.207,2.207C29.868,54.884,29.612,54.981,29.356,54.981z"/>
	</g>
</g>
<g>
</g>
<g>
</g>
<g>
</g>
<g>
</g>
<g>
</g>
<g>
</g>
<g>
</g>
<g>
</g>
<g>
</g>
<g>
</g>
<g>
</g>
<g>
</g>
<g>
</g>
<g>
</g>
<g>
</g>
</svg>
