<svg height="512pt" viewBox="0 0 512 512" width="512pt"
  xmlns="http://www.w3.org/2000/svg">
  <path d="m422 76v30c0 8.402344-6.597656 15-15 15s-15-6.597656-15-15v-30c0-8.402344 6.597656-15 15-15s15 6.597656 15 15zm0 0" fill="#54469d"/>
  <path d="m407 121v-60c8.402344 0 15 6.597656 15 15v30c0 8.402344-6.597656 15-15 15zm0 0" fill="#392e6e"/>
  <path d="m497 301c-8.289062 0-15-6.710938-15-15v-90c0-8.277344-6.722656-15-15-15h-30c-8.289062 0-15-6.710938-15-15s6.710938-15 15-15h30c24.8125 0 45 20.1875 45 45v90c0 8.289062-6.710938 15-15 15zm0 0" fill="#392e6e"/>
  <path d="m452 136v15l-45 30-45-30v-15c0-24.902344 20.097656-45 45-45s45 20.097656 45 45zm0 0" fill="#deecf1"/>
  <path d="m452 136v15l-45 30v-90c24.902344 0 45 20.097656 45 45zm0 0" fill="#a8d3d8"/>
  <path d="m422 467v30c0 8.402344-6.597656 15-15 15s-15-6.597656-15-15v-30c0-8.402344 6.597656-15 15-15s15 6.597656 15 15zm0 0" fill="#54469d"/>
  <path d="m422 467v30c0 8.402344-6.597656 15-15 15v-60c8.402344 0 15 6.597656 15 15zm0 0" fill="#392e6e"/>
  <path d="m451.699219 391c-.898438 17.402344-5.699219 40.601562-31.800781 83.800781-2.699219 4.5-7.796876 7.199219-12.898438 7.199219s-10.199219-2.699219-12.898438-7.199219c-26.402343-43.5-30.902343-66.699219-31.800781-83.800781l44.699219-30zm0 0" fill="#deecf1"/>
  <path d="m407 361 44.699219 30c-.898438 17.402344-5.699219 40.601562-31.800781 83.800781-2.699219 4.5-7.796876 7.199219-12.898438 7.199219zm0 0" fill="#a8d3d8"/>
  <path d="m332 106v361c0 24.902344-20.097656 45-45 45h-242c-24.902344 0-45-20.097656-45-45v-361c0-24.902344 20.097656-45 45-45h242c24.902344 0 45 20.097656 45 45zm0 0" fill="#463b85"/>
  <path d="m332 106v361c0 24.902344-20.097656 45-45 45h-121v-451h121c24.902344 0 45 20.097656 45 45zm0 0" fill="#392e6e"/>
  <path d="m302 106v361c0 8.402344-6.597656 15-15 15h-242c-8.402344 0-15-6.597656-15-15v-361c0-8.402344 6.597656-15 15-15h242c8.402344 0 15 6.597656 15 15zm0 0" fill="#deecf1"/>
  <path d="m302 106v361c0 8.402344-6.597656 15-15 15h-121v-391h121c8.402344 0 15 6.597656 15 15zm0 0" fill="#c6e2e7"/>
  <g fill="#a8d3d8">
    <path d="m272 346c0 8.402344-6.597656 15-15 15h-182c-8.402344 0-15-6.597656-15-15s6.597656-15 15-15h182c8.402344 0 15 6.597656 15 15zm0 0"/>
    <path d="m272 406c0 8.402344-6.597656 15-15 15h-182c-8.402344 0-15-6.597656-15-15s6.597656-15 15-15h182c8.402344 0 15 6.597656 15 15zm0 0"/>
    <path d="m272 286c0 8.402344-6.597656 15-15 15h-182c-8.402344 0-15-6.597656-15-15s6.597656-15 15-15h182c8.402344 0 15 6.597656 15 15zm0 0"/>
  </g>
  <path d="m241 196c0 8.402344-6.597656 15-15 15h-121c-8.402344 0-15-6.597656-15-15s6.597656-15 15-15h121c8.402344 0 15 6.597656 15 15zm0 0" fill="#979fef"/>
  <path d="m226 211h-60v-30h60c8.402344 0 15 6.597656 15 15s-6.597656 15-15 15zm0 0" fill="#7984eb"/>
  <path d="m272 406c0 8.402344-6.597656 15-15 15h-91v-30h91c8.402344 0 15 6.597656 15 15zm0 0" fill="#8ebac5"/>
  <path d="m272 346c0 8.402344-6.597656 15-15 15h-91v-30h91c8.402344 0 15 6.597656 15 15zm0 0" fill="#8ebac5"/>
  <path d="m257 301h-91v-30h91c8.402344 0 15 6.597656 15 15s-6.597656 15-15 15zm0 0" fill="#8ebac5"/>
  <path d="m226 45v31c0 8.402344-6.597656 15-15 15h-91c-8.402344 0-15-6.597656-15-15v-31c0-8.402344 6.597656-15 15-15h16c0-16.5 13.5-30 30-30s30 13.5 30 30h15c8.402344 0 15 6.597656 15 15zm0 0" fill="#979fef"/>
  <path d="m211 91h-45v-91c16.5 0 30 13.5 30 30h15c8.402344 0 15 6.597656 15 15v31c0 8.402344-6.597656 15-15 15zm0 0" fill="#7984eb"/>
  <path d="m452 151v228.300781c0 3.898438 0 7.800781-.300781 11.699219h-89.398438c-.300781-3.601562-.300781-7.199219-.300781-10.800781v-229.199219zm0 0" fill="#979fef"/>
  <path d="m452 151v228.300781c0 3.898438 0 7.800781-.300781 11.699219h-44.699219v-240zm0 0" fill="#6b77e8"/>
</svg>
