<svg height="512pt" viewBox="0 0 512.001 512" width="512pt"
  xmlns="http://www.w3.org/2000/svg">
  <path d="m301 271-45 30-45-30c0-1.5.300781-3.300781.902344-4.800781l30-90c2.097656-6 8.097656-9.300781 14.097656-9.300781s12 3.300781 14.097656 9.300781l30 90c.601563 1.5.902344 3.300781.902344 4.800781zm0 0" fill="#ffcebf"/>
  <path d="m301 271-45 30v-134.101562c6 0 12 3.300781 14.097656 9.300781l30 90c.601563 1.5.902344 3.300781.902344 4.800781zm0 0" fill="#ffa78f"/>
  <path d="m301 271v146.699219c0 8.101562-6.597656 15-15 15h-60c-8.402344 0-15-6.898438-15-15v-146.699219zm0 0" fill="#f27281"/>
  <path d="m301 271v146.699219c0 8.101562-6.597656 15-15 15h-30v-161.699219zm0 0" fill="#e63950"/>
  <path d="m501.800781 211.898438-44.5-14.699219c-4.199219-14.398438-9.902343-28.800781-17.402343-42l20.402343-41.101563c3-5.699218 1.800781-12.597656-2.703125-17.097656l-42.597656-42.601562c-4.5-4.496094-11.398438-5.699219-17.101562-2.699219l-41.097657 20.402343c-13.199219-7.5-27.601562-13.199218-42-17.402343l-14.703125-44.5c-1.796875-6-7.5-10.199219-14.097656-10.199219h-60c-6.597656 0-12.300781 4.199219-14.097656 10.199219l-14.703125 44.5c-14.398438 4.203125-28.796875 9.902343-42 17.402343l-41.097657-20.402343c-5.703124-3-12.601562-1.796875-17.101562 2.699219l-42.597656 42.601562c-4.503906 4.5-5.703125 11.398438-2.703125 17.097656l20.402343 41.101563c-7.5 13.199219-13.203124 27.601562-17.402343 42l-44.5 14.699219c-6 1.800781-10.199219 7.5-10.199219 14.101562v60c0 6.597656 4.199219 12.300781 10.199219 14.097656l44.5 14.703125c4.199219 14.398438 9.902343 28.796875 17.402343 42l-20.402343 41.101563c-3 5.699218-1.800781 12.597656 2.703125 17.097656l42.597656 42.597656c4.5 4.503906 11.398438 5.703125 17.101562 2.703125l41.097657-20.398437c13.199219 7.5 27.601562 13.199218 42 17.398437l14.703125 44.5c1.796875 6 7.5 10.199219 14.097656 10.199219h60c6.597656 0 12.300781-4.199219 14.097656-10.199219l14.703125-44.5c14.398438-4.199219 28.796875-9.898437 42-17.398437l41.097657 20.398437c5.703124 3 12.601562 1.800781 17.101562-2.703125l42.597656-42.597656c4.503906-4.5 5.703125-11.398438 2.703125-17.097656l-20.402343-41.101563c7.5-13.199219 13.203124-27.597656 17.402343-42l44.5-14.703125c6-1.796875 10.199219-7.5 10.199219-14.097656v-60c0-6.601562-4.199219-12.300781-10.199219-14.101562zm-245.800781 194.101562c-82.800781 0-150-67.199219-150-150s67.199219-150 150-150 150 67.199219 150 150-67.199219 150-150 150zm0 0" fill="#b5baf3"/>
  <path d="m512 226v60c0 6.597656-4.199219 12.300781-10.199219 14.097656l-44.5 14.703125c-4.199219 14.398438-9.902343 28.796875-17.402343 42l20.402343 41.101563c3 5.699218 1.800781 12.597656-2.703125 17.097656l-42.597656 42.597656c-4.5 4.503906-11.398438 5.703125-17.101562 2.703125l-41.097657-20.398437c-13.199219 7.5-27.601562 13.199218-42 17.398437l-14.703125 44.5c-1.796875 6-7.5 10.199219-14.097656 10.199219h-30v-106c82.800781 0 150-67.199219 150-150s-67.199219-150-150-150v-106h30c6.597656 0 12.300781 4.199219 14.097656 10.199219l14.703125 44.5c14.398438 4.203125 28.796875 9.902343 42 17.402343l41.097657-20.402343c5.703124-3 12.601562-1.796875 17.101562 2.699219l42.597656 42.601562c4.503906 4.5 5.703125 11.398438 2.703125 17.097656l-20.402343 41.101563c7.5 13.199219 13.203124 27.601562 17.402343 42l44.5 14.699219c6 1.800781 10.199219 7.5 10.199219 14.101562zm0 0" fill="#979fef"/>
</svg>
