<svg height="512pt" viewBox="0 0 512 512" width="512pt"
  xmlns="http://www.w3.org/2000/svg">
  <path d="m421 165c0 37.800781-12.597656 73.5-36.597656 103.199219-15 18.300781-23.402344 41.699219-23.402344 65.402343v57.398438l-105 30-105-30v-57.398438c0-23.402343-8.402344-47.101562-24-66.601562-30.300781-37.5-42-84.898438-33.300781-132.601562 12-65.097657 63-117.597657 127.203125-130.796876 11.695312-2.402343 23.699218-3.601562 35.097656-3.601562 90.300781 0 165 73.199219 165 165zm0 0" fill="#ffd400"/>
  <path d="m421 165c0 37.800781-12.597656 73.5-36.597656 103.199219-15 18.300781-23.402344 41.699219-23.402344 65.402343v57.398438l-105 30v-421c90.300781 0 165 73.199219 165 165zm0 0" fill="#fdbf00"/>
  <path d="m331 436c0 41.398438-33.601562 76-75 76s-75-34.601562-75-76c0-8.402344 6.597656-15 15-15h120c8.402344 0 15 6.597656 15 15zm0 0" fill="#c6e2e7"/>
  <path d="m46 180h-31c-8.289062 0-15-6.710938-15-15s6.710938-15 15-15h31c8.289062 0 15 6.710938 15 15s-6.710938 15-15 15zm0 0" fill="#ffd400"/>
  <path d="m497 180h-31c-8.289062 0-15-6.710938-15-15s6.710938-15 15-15h31c8.289062 0 15 6.710938 15 15s-6.710938 15-15 15zm0 0" fill="#fdbf00"/>
  <path d="m35.160156 292.5c-4.144531-7.179688-1.683594-16.347656 5.492188-20.492188l25.988281-15c7.144531-4.175781 16.332031-1.671874 20.492187 5.492188 4.144532 7.179688 1.683594 16.347656-5.492187 20.492188l-25.988281 15c-7.097656 4.101562-16.300782 1.746093-20.492188-5.492188zm0 0" fill="#ffd400"/>
  <path d="m424.867188 67.5c-4.144532-7.179688-1.683594-16.347656 5.492187-20.492188l25.988281-15c7.144532-4.132812 16.316406-1.671874 20.492188 5.492188 4.144531 7.179688 1.683594 16.347656-5.492188 20.492188l-25.988281 15c-7.097656 4.101562-16.300781 1.746093-20.492187-5.492188zm0 0" fill="#fdbf00"/>
  <path d="m66.640625 72.992188-25.988281-15c-7.175782-4.144532-9.636719-13.3125-5.492188-20.492188 4.148438-7.164062 13.300782-9.625 20.492188-5.492188l25.988281 15c7.175781 4.144532 9.636719 13.3125 5.492187 20.492188-4.1875 7.230469-13.390624 9.597656-20.492187 5.492188zm0 0" fill="#ffd400"/>
  <path d="m456.347656 297.992188-25.988281-15c-7.175781-4.144532-9.636719-13.3125-5.492187-20.492188 4.148437-7.164062 13.332031-9.667969 20.492187-5.492188l25.988281 15c7.175782 4.144532 9.636719 13.3125 5.492188 20.492188-4.1875 7.226562-13.386719 9.597656-20.492188 5.492188zm0 0" fill="#fdbf00"/>
  <path d="m331 436c0 41.398438-33.601562 76-75 76v-91h60c8.402344 0 15 6.597656 15 15zm0 0" fill="#8ebac5"/>
  <path d="m301 165-45 30-45-30c0-1.5.300781-3.300781.902344-4.800781l30-90c2.097656-6 8.097656-9.296875 14.097656-9.296875s12 3.296875 14.097656 9.296875l30 90c.601563 1.5.902344 3.300781.902344 4.800781zm0 0" fill="#ffcebf"/>
  <path d="m301 165-45 30v-134.097656c6 0 12 3.296875 14.097656 9.296875l30 90c.601563 1.5.902344 3.300781.902344 4.800781zm0 0" fill="#ffa78f"/>
  <path d="m301 165v241c0 8.402344-6.597656 15-15 15h-60c-8.402344 0-15-6.597656-15-15v-241zm0 0" fill="#f27281"/>
  <path d="m301 165v241c0 8.402344-6.597656 15-15 15h-30v-256zm0 0" fill="#e63950"/>
  <path d="m361 391v15c0 24.902344-20.097656 45-45 45h-120c-24.902344 0-45-20.097656-45-45v-15zm0 0" fill="#deecf1"/>
  <path d="m361 391v15c0 24.902344-20.097656 45-45 45h-60v-60zm0 0" fill="#a8d3d8"/>
</svg>
